HIERARCHY
ROOT Hips
{
	OFFSET -3.958830 18.904000 13.208200
	CHANNELS 6 Xposition Yposition Zposition Zrotation Yrotation Xrotation 
	JOINT LHipJoint
	{
		OFFSET 0.000000 0.000000 0.000000
		CHANNELS 3 Zrotation Yrotation Xrotation
		JOINT LeftUpLeg
		{
			OFFSET 1.800000 -1.400000 0.085000
			CHANNELS 3 Zrotation Yrotation Xrotation
			JOINT LeftLeg
			{
				OFFSET 2.215000 -6.000000 0.000000
				CHANNELS 3 Zrotation Yrotation Xrotation
				JOINT LeftFoot
				{
					OFFSET 2.500000 -6.900000 0.000000
					CHANNELS 3 Zrotation Yrotation Xrotation
					JOINT LeftToeBase
					{
						OFFSET 0.200000 -0.500000 1.950000
						CHANNELS 3 Zrotation Yrotation Xrotation
						End Site
						{
							OFFSET 0.000000 0.000000 0.000000
						}
					}
				}
			}
		}
	}
	JOINT RHipJoint
	{
		OFFSET 0.000000 0.000000 0.000000
		CHANNELS 3 Zrotation Yrotation Xrotation
		JOINT RightUpLeg
		{
			OFFSET -1.800000 -1.400000 0.085000
			CHANNELS 3 Zrotation Yrotation Xrotation
			JOINT RightLeg
			{
				OFFSET -2.215000 -6.000000 0.000000
				CHANNELS 3 Zrotation Yrotation Xrotation
				JOINT RightFoot
				{
					OFFSET -2.500000 -6.900000 0.000000
					CHANNELS 3 Zrotation Yrotation Xrotation
					JOINT RightToeBase
					{
						OFFSET -0.200000 -0.500000 1.950000
						CHANNELS 3 Zrotation Yrotation Xrotation
						End Site
						{
							OFFSET 0.000000 0.000000 0.000000
						}
					}
				}
			}
		}
	}
	JOINT LowerBack
	{
		OFFSET 0.000000 0.000000 0.000000
		CHANNELS 3 Zrotation Yrotation Xrotation
		JOINT Spine
		{
			OFFSET -0.087000 1.940000 -0.288900
			CHANNELS 3 Zrotation Yrotation Xrotation
			JOINT Spine1
			{
				OFFSET 0.000000 1.950000 0.060000
				CHANNELS 3 Zrotation Yrotation Xrotation
				JOINT Neck
				{
					OFFSET 0.000000 0.000000 0.000000
					CHANNELS 3 Zrotation Yrotation Xrotation
					JOINT Neck1
					{
						OFFSET 0.000000 1.600000 0.340000
						CHANNELS 3 Zrotation Yrotation Xrotation
						JOINT Head
						{
							OFFSET 0.000000 1.667000 -0.240000
							CHANNELS 3 Zrotation Yrotation Xrotation
							End Site
							{
								OFFSET 0.000000 0.000000 0.000000
							}
						}
					}
				}
				JOINT LeftShoulder
				{
					OFFSET 0.000000 0.000000 0.000000
					CHANNELS 3 Zrotation Yrotation Xrotation
					JOINT LeftArm
					{
						OFFSET 2.700000 1.550000 -0.730000
						CHANNELS 3 Zrotation Yrotation Xrotation
						JOINT LeftForeArm
						{
							OFFSET 5.450000 0.000000 0.000000
							CHANNELS 3 Zrotation Yrotation Xrotation
							JOINT LeftHand
							{
								OFFSET 3.450000 0.000000 0.000000
								CHANNELS 3 Zrotation Yrotation Xrotation
								JOINT LeftHandIndex1
								{
									OFFSET 0.750000 0.000000 0.000000
									CHANNELS 3 Zrotation Yrotation Xrotation
									End Site
									{
										OFFSET 0.000000 0.000000 0.000000
									}
								}
							}
						}
					}
				}
				JOINT RightShoulder
				{
					OFFSET 0.000000 0.000000 0.000000
					CHANNELS 3 Zrotation Yrotation Xrotation
					JOINT RightArm
					{
						OFFSET -2.700000 1.550000 -0.730000
						CHANNELS 3 Zrotation Yrotation Xrotation
						JOINT RightForeArm
						{
							OFFSET -5.450000 0.000000 0.000000
							CHANNELS 3 Zrotation Yrotation Xrotation
							JOINT RightHand
							{
								OFFSET -3.450000 0.000000 0.000000
								CHANNELS 3 Zrotation Yrotation Xrotation
								JOINT RightHandIndex1
								{
									OFFSET -0.750000 0.000000 0.000000
									CHANNELS 3 Zrotation Yrotation Xrotation
									End Site
									{
										OFFSET 0.000000 0.000000 0.000000
									}
								}
							}
						}
					}
				}
			}
		}
	}
}
MOTION
Frames: 9
Frame Time: 0.016667
-0.015440 16.325390 -1.646780 -1.975658 42.236440 0.643199 -15.116198 12.096839 2.920284 7.899290 -2.542469 -20.828948 -6.879805 3.989230 5.150349 -0.853643 3.721639 3.628664 0.055110 -0.318350 0.124600 18.367747 -11.677978 2.498546 -6.899314 0.113403 -5.348484 1.911357 -4.168017 8.910113 0.053955 -4.508503 2.957283 0.165550 0.950290 0.324330 -4.966112 1.291277 -6.920095 12.344898 4.288439 2.789482 -2.504728 3.696791 13.000062 -0.114946 -1.831590 -10.175656 -1.896088 3.832331 20.826405 -7.603390 6.217220 6.260350 -2.920844 0.374541 4.021384 -50.353517 -22.741912 14.345890 119.483322 -48.454872 -81.092748 -4.463561 2.961425 -0.071860 0.817010 -0.632660 0.188420 3.828795 3.514889 7.157437 62.064776 22.364599 9.666145 -127.144672 42.525890 -91.584607 1.791880 -2.062555 -0.500380 0.232050 0.154010 -0.120150 
0.018140 16.315940 -1.638530 -1.635523 43.706159 -0.043318 -15.103191 12.008175 2.857029 7.617653 -2.454509 -20.103344 -7.283884 4.138019 5.659011 -0.905924 3.792476 3.597866 0.124270 -0.225590 0.129460 18.385739 -11.792793 2.508292 -7.341224 -0.045061 -4.138544 1.940336 -4.296876 9.110505 0.013141 -4.702013 2.885687 0.251670 0.968330 0.322500 -5.142638 1.643883 -6.915368 12.594777 4.365294 3.109796 -3.169777 3.909658 14.221457 0.025061 -1.977207 -9.633482 -2.051298 4.226580 21.341318 -6.781510 5.371870 5.484740 -3.868990 -0.408247 3.462515 -50.472792 -27.250900 16.017269 119.720115 -41.031934 -72.315105 -4.436229 3.083408 -0.085440 0.828030 -0.645980 0.213940 4.667229 4.770354 6.941036 58.809639 26.628143 10.456679 -128.560769 33.343477 -81.484515 1.669138 -2.217655 -0.504080 0.268660 0.147740 -0.112020 
0.050360 16.307490 -1.632090 -1.370556 44.942489 -0.697200 -15.094233 11.940896 2.788176 7.360178 -2.385535 -19.612967 -7.516724 4.328687 6.595728 -0.957161 3.885976 3.570999 0.192690 -0.140970 0.141240 18.397761 -11.901304 2.521795 -7.798360 -0.169293 -3.030495 2.030330 -4.438667 9.356329 -0.021780 -4.909925 2.808063 0.337160 1.008920 0.337390 -5.307538 1.955428 -6.910735 13.070664 4.283702 3.516575 -4.155303 4.042145 15.680531 0.356415 -2.221459 -9.320551 -2.346189 4.684795 21.530762 -6.285620 4.752800 5.153940 -2.694162 -0.663358 3.038813 -50.037605 -31.038754 17.404533 119.799151 -34.604989 -64.663232 -4.450735 3.216445 -0.115650 0.863440 -0.670070 0.246640 3.064732 5.525847 6.745843 54.999616 30.656175 11.166294 -129.297925 25.297485 -70.943214 1.558166 -2.392807 -0.508650 0.301500 0.137520 -0.100700 
0.076160 16.298900 -1.625740 -1.099563 45.878571 -1.314266 -15.092942 11.910399 2.731448 7.230878 -2.307819 -19.338740 -7.780674 4.603748 7.857521 -0.989140 4.007227 3.531168 0.230710 -0.078760 0.126530 18.398153 -11.988115 2.529848 -8.219876 -0.282618 -2.071382 2.145092 -4.598168 9.731017 -0.046435 -5.097579 2.740672 0.403620 1.057800 0.353240 -5.432714 2.163129 -6.915283 13.640602 4.131144 4.211481 -5.567886 4.223762 16.874378 0.864135 -2.500219 -9.016622 -2.733053 4.957290 21.738341 -5.973520 4.159590 5.028280 -0.393377 -0.399315 2.499688 -47.991866 -33.992410 17.940395 119.299515 -29.200501 -57.492414 -4.491598 3.324072 -0.152420 0.904260 -0.693990 0.273940 -0.066503 5.671739 6.475561 50.706222 33.651026 11.258392 -129.028673 18.863507 -60.588442 1.482041 -2.546379 -0.511740 0.334240 0.141230 -0.080610 
0.097290 16.293090 -1.619100 -0.914038 46.351881 -1.870590 -15.091575 11.919234 2.695273 7.262749 -2.261065 -19.379117 -8.034848 4.957069 9.451425 -1.000329 4.156043 3.473085 0.247440 -0.052760 0.106140 18.394734 -12.046790 2.527869 -8.538007 -0.358854 -1.371083 2.134744 -4.717773 10.213702 -0.056170 -5.227506 2.691531 0.439480 1.096740 0.365400 -5.528939 2.247054 -6.929422 14.314054 3.729112 5.262271 -6.826484 4.271302 17.330913 1.065023 -3.115326 -8.538445 -3.705756 5.471266 21.852819 -5.525790 3.609000 5.051090 1.974600 0.196660 2.034420 -44.604966 -34.954938 16.977570 118.513151 -25.123329 -51.341902 -4.541658 3.411594 -0.180010 0.929570 -0.718340 0.287990 -2.786696 5.657303 5.774210 44.203649 35.419841 10.565072 -127.592453 15.094134 -52.180001 1.456498 -2.642090 -0.512770 0.353840 0.155290 -0.064410 
0.109610 16.286530 -1.617530 -0.747368 46.764292 -2.572282 -15.103485 11.971070 2.682999 7.375175 -2.254090 -19.658325 -8.238131 5.398270 11.454032 -1.020486 4.353116 3.394710 0.218270 -0.083860 0.074550 18.372351 -12.082513 2.522106 -8.820573 -0.468370 -0.607418 2.018486 -4.851211 10.740974 -0.054175 -5.323853 2.669974 0.440210 1.130890 0.352300 -5.580808 2.214449 -6.963254 14.819532 3.178790 7.080029 -7.781347 4.296000 16.863578 1.247604 -3.727201 -7.752488 -4.692238 5.716549 22.035302 -5.512620 3.236650 4.902770 3.841468 1.333129 1.306044 -39.993973 -35.036747 15.630254 116.694485 -23.207777 -46.528828 -4.604654 3.401269 -0.172860 0.944750 -0.743450 0.278200 -5.143352 5.008322 4.691586 36.290290 35.497276 8.657173 -124.661532 13.678591 -45.262541 1.486552 -2.633443 -0.544040 0.392630 0.193990 -0.067940 
0.108550 16.278840 -1.623230 -0.811960 47.068510 -3.803896 -15.122675 12.046509 2.686679 7.848370 -2.229244 -19.872238 -8.622277 5.972535 13.675774 -0.985035 4.643840 3.279871 0.145630 -0.185420 0.024980 18.339124 -12.082789 2.538307 -9.010265 -0.665287 0.570104 1.931601 -5.014373 10.959857 -0.060121 -5.426749 2.645159 0.379380 1.159230 0.352930 -5.626577 2.100130 -7.058196 15.582987 2.452842 9.922820 -8.852700 4.356344 15.796508 1.459053 -4.386647 -6.959338 -5.784764 5.749027 22.414293 -5.423360 2.817470 5.324960 4.959775 2.557069 0.439738 -33.922148 -34.377784 13.615071 114.134894 -23.120754 -43.137424 -4.672745 3.361082 -0.152960 0.944710 -0.763510 0.254700 -6.990032 4.180960 3.737308 27.529380 33.948954 5.440997 -120.605157 14.261973 -40.226089 1.594734 -2.553722 -0.565910 0.400680 0.250580 -0.069520 
0.098230 16.275550 -1.631640 -1.036437 47.176731 -5.609183 -15.147863 12.161484 2.686724 8.619753 -2.120798 -19.756349 -8.998198 6.588494 15.847581 -0.899189 4.950549 3.148842 0.083100 -0.277960 -0.003820 18.298726 -12.032383 2.577932 -9.151087 -0.976338 2.265741 1.953919 -5.205904 10.871325 -0.099900 -5.525128 2.619047 0.297460 1.139160 0.343190 -5.651371 1.855801 -7.205467 16.452844 1.489162 13.572852 -9.840097 4.379030 14.980823 1.566064 -5.231999 -6.590291 -7.321934 5.625165 23.317670 -5.153740 2.263150 5.451290 5.812291 3.178106 0.011246 -27.151081 -32.331891 10.320030 111.353527 -23.791238 -40.786495 -4.689068 3.302253 -0.109960 0.897470 -0.747310 0.227460 -8.449438 3.927461 3.147618 18.410539 31.404997 1.313900 -115.666766 15.634494 -36.372272 1.747183 -2.437833 -0.565280 0.388660 0.282850 -0.069470 
0.083500 16.270180 -1.638440 -1.213387 46.996902 -7.270114 -15.172072 12.284905 2.728393 9.560308 -2.014443 -19.815012 -9.646771 7.330367 18.013513 -0.784085 5.310999 3.000442 0.024210 -0.365010 -0.023960 18.257353 -11.938785 2.613765 -9.348741 -1.269917 3.867949 2.040609 -5.382902 10.660146 -0.141518 -5.587889 2.618871 0.209000 1.104530 0.317810 -5.607396 1.507358 -7.372683 16.914994 0.639050 17.190416 -10.516502 4.468481 14.182531 1.620249 -5.992419 -6.647843 -8.932090 5.458120 24.823050 -4.829580 1.761880 5.767620 6.947509 3.807247 -0.004693 -21.178648 -29.285653 7.297640 108.175894 -25.398104 -39.424605 -4.672329 3.223785 -0.057460 0.836900 -0.720450 0.205000 -10.108924 3.578516 2.866675 10.497699 28.137676 -2.082409 -109.973168 17.740284 -33.775898 1.888514 -2.320301 -0.563430 0.379510 0.297950 -0.070980 
